<?xml version="1.0" encoding="utf-8"?>
<!-- Generator: Adobe Illustrator 27.5.0, SVG Export Plug-In . SVG Version: 6.00 Build 0)  -->
<svg version="1.1" xmlns="http://www.w3.org/2000/svg" xmlns:xlink="http://www.w3.org/1999/xlink" x="0px" y="0px"
	 viewBox="0 0 500 500" style="enable-background:new 0 0 500 500;" xml:space="preserve">
<g id="BACKGROUND">
	<rect style="fill:#FFFFFF;" width="500" height="500"/>
</g>
<g id="OBJECTS">
	<g>
		<g>
			<g>
				<path style="fill:#EAF6FE;" d="M116.903,282.651c11.901,26.018-22.779,60.195,3.567,81.118
					c19.793,15.718,64.483-24.705,81.331-30.677c16.849-5.971,36.712-4.445,50.143,7.351c28.37,24.917,45.646,58.675,83.566,51.717
					c44.292-8.126,21.707-60.623,41.893-94.929c12.519-21.275,72.175-43.113,66.332-79.487
					c-4.812-29.951-42.397-38.182-51.418-53.999c-12.396-21.733,0.845-42.832-5.08-73.076
					c-4.129-21.079-28.116-31.134-51.491-24.654c-34.042,9.438-44.837,44.908-80.162,45.16
					c-45.613,0.325-53.456-47.912-91.186-33.223c-34.216,13.321-20.924,80.682-39.954,98.889
					c-19.03,18.208-64.66,29.137-63.528,54.512C62.086,257.565,102.597,251.376,116.903,282.651z"/>
			</g>
			<g>
				
					<ellipse transform="matrix(0.7416 -0.6708 0.6708 0.7416 22.6518 211.0793)" style="fill:#EAF6FE;" cx="285.349" cy="76.133" rx="31.558" ry="14.344"/>
				
					<ellipse transform="matrix(0.9999 -0.0161 0.0161 0.9999 -2.046 6.3709)" style="fill:#EAF6FE;" cx="393.599" cy="129.919" rx="16.704" ry="16.704"/>
				<path style="fill:#EAF6FE;" d="M409.949,154.947c0.365,3.184-1.919,6.061-5.103,6.426c-3.184,0.365-6.061-1.919-6.426-5.103
					c-0.365-3.184,1.919-6.061,5.103-6.426S409.583,151.763,409.949,154.947z"/>
				<path style="fill:#EAF6FE;" d="M417.49,143.006c0.095,0.828-0.499,1.576-1.327,1.671c-0.828,0.095-1.576-0.499-1.671-1.327
					s0.499-1.576,1.327-1.671C416.647,141.584,417.395,142.178,417.49,143.006z"/>
				
					<ellipse transform="matrix(0.9935 -0.114 0.114 0.9935 -14.6957 15.901)" style="fill:#EAF6FE;" cx="131.681" cy="136.441" rx="20.568" ry="27.253"/>
				<path style="fill:#EAF6FE;" d="M103.031,175.442c0.421,3.668-2.211,6.982-5.879,7.403c-3.668,0.421-6.982-2.211-7.403-5.879
					c-0.421-3.668,2.211-6.982,5.879-7.403C99.296,169.142,102.61,171.774,103.031,175.442z"/>
				
					<ellipse transform="matrix(0.4623 -0.8867 0.8867 0.4623 -184.6415 246.4508)" style="fill:#EAF6FE;" cx="110.886" cy="275.468" rx="14.398" ry="14.398"/>
				<path style="fill:#EAF6FE;" d="M79.079,273.425c0.324,2.821-1.701,5.371-4.522,5.695c-2.821,0.324-5.371-1.701-5.695-4.522
					c-0.324-2.821,1.701-5.371,4.522-5.695C76.206,268.579,78.755,270.603,79.079,273.425z"/>
				<path style="fill:#EAF6FE;" d="M97.428,307.032c0.194,1.693-1.021,3.223-2.713,3.417c-1.693,0.194-3.223-1.021-3.417-2.713
					c-0.194-1.693,1.021-3.223,2.713-3.417C95.704,304.125,97.233,305.339,97.428,307.032z"/>
				
					<ellipse transform="matrix(0.1403 -0.9901 0.9901 0.1403 -182.8314 484.272)" style="fill:#EAF6FE;" cx="187.463" cy="347.424" rx="18.511" ry="18.511"/>
				<path style="fill:#EAF6FE;" d="M234.436,350.832c0.324,2.821-1.701,5.371-4.522,5.695c-2.821,0.324-5.371-1.701-5.695-4.522
					c-0.324-2.821,1.701-5.371,4.522-5.695C231.563,345.986,234.113,348.011,234.436,350.832z"/>
				<path style="fill:#EAF6FE;" d="M212.746,382.823c0.13,1.129-0.68,2.148-1.809,2.278c-1.128,0.13-2.148-0.68-2.278-1.809
					c-0.13-1.129,0.68-2.148,1.809-2.278C211.597,380.885,212.617,381.695,212.746,382.823z"/>
				<path style="fill:#EAF6FE;" d="M162.816,394.246c0.259,2.257-1.361,4.297-3.618,4.556s-4.297-1.361-4.556-3.618
					s1.361-4.297,3.618-4.556C160.518,390.369,162.557,391.989,162.816,394.246z"/>
				
					<ellipse transform="matrix(0.8763 -0.4818 0.4818 0.8763 -109.9355 222.0547)" style="fill:#EAF6FE;" cx="377.442" cy="325.106" rx="18.511" ry="18.511"/>
				<path style="fill:#EAF6FE;" d="M412.121,289.037c0.291,2.539-1.531,4.834-4.07,5.125c-2.539,0.291-4.834-1.531-5.125-4.07
					c-0.291-2.539,1.531-4.834,4.07-5.125C409.535,284.675,411.83,286.497,412.121,289.037z"/>
				<path style="fill:#EAF6FE;" d="M413.654,320.433c0.259,2.257-1.361,4.297-3.618,4.556c-2.257,0.259-4.297-1.361-4.556-3.618
					c-0.259-2.257,1.361-4.297,3.618-4.556C411.355,316.556,413.395,318.176,413.654,320.433z"/>
				<path style="fill:#EAF6FE;" d="M248.49,89.912c0.291,2.539-1.531,4.834-4.07,5.125c-2.539,0.291-4.834-1.531-5.125-4.07
					c-0.291-2.539,1.531-4.834,4.07-5.125C245.904,85.551,248.199,87.373,248.49,89.912z"/>
				<g>
					<path style="fill:#EAF6FE;" d="M414.935,100.487c0.311,2.711-1.634,5.161-4.345,5.472c-2.711,0.311-5.161-1.634-5.472-4.345
						s1.634-5.161,4.345-5.472C412.174,95.83,414.624,97.776,414.935,100.487z"/>
					<path style="fill:#EAF6FE;" d="M436.609,182.996c0.735,6.408-3.863,12.198-10.271,12.933
						c-6.408,0.735-12.198-3.863-12.933-10.271c-0.735-6.408,3.863-12.198,10.271-12.933
						C430.084,171.99,435.874,176.588,436.609,182.996z"/>
					<path style="fill:#EAF6FE;" d="M457.429,206.829c0.255,2.218-1.337,4.223-3.555,4.477c-2.218,0.255-4.222-1.337-4.477-3.555
						c-0.254-2.218,1.337-4.222,3.555-4.477S457.174,204.611,457.429,206.829z"/>
					<path style="fill:#EAF6FE;" d="M389.754,353.844c0.311,2.711-1.634,5.161-4.345,5.472c-2.711,0.311-5.161-1.634-5.472-4.345
						c-0.311-2.711,1.634-5.161,4.345-5.472C386.993,349.188,389.443,351.133,389.754,353.844z"/>
					<path style="fill:#EAF6FE;" d="M424.205,287.65c0.766,6.673-4.023,12.704-10.697,13.47c-6.673,0.766-12.704-4.023-13.47-10.697
						c-0.766-6.673,4.023-12.704,10.697-13.47C417.408,276.188,423.439,280.977,424.205,287.65z"/>
					<path style="fill:#EAF6FE;" d="M256.844,70.252c0.594,5.175-3.12,9.852-8.296,10.446c-5.175,0.594-9.852-3.12-10.446-8.296
						c-0.594-5.175,3.12-9.852,8.296-10.446C251.574,61.362,256.25,65.076,256.844,70.252z"/>
					<path style="fill:#EAF6FE;" d="M324.196,54.385c0.17,1.479-0.891,2.815-2.37,2.985c-1.479,0.17-2.815-0.891-2.985-2.37
						c-0.17-1.479,0.891-2.815,2.37-2.985C322.69,51.845,324.027,52.907,324.196,54.385z"/>
					<path style="fill:#EAF6FE;" d="M98.38,143.14c0.566,4.929-2.972,9.383-7.901,9.949c-4.929,0.566-9.383-2.972-9.949-7.9
						c-0.566-4.929,2.972-9.383,7.901-9.949C93.361,134.674,97.815,138.212,98.38,143.14z"/>
					
						<ellipse transform="matrix(0.9326 -0.3609 0.3609 0.9326 -104.5657 54.7643)" style="fill:#EAF6FE;" cx="94.363" cy="307.384" rx="11.936" ry="11.936"/>
					<path style="fill:#EAF6FE;" d="M171.693,364.399c0.311,2.711-1.634,5.161-4.345,5.472c-2.711,0.311-5.161-1.634-5.472-4.345
						c-0.311-2.711,1.634-5.161,4.345-5.472C168.932,359.742,171.382,361.688,171.693,364.399z"/>
					<circle style="fill:#EAF6FE;" cx="266.067" cy="359.447" r="14.373"/>
					<path style="fill:#EAF6FE;" d="M238.62,368.474c0.255,2.218-1.337,4.222-3.555,4.477c-2.218,0.255-4.223-1.337-4.477-3.555
						c-0.254-2.218,1.337-4.222,3.555-4.477C236.362,364.664,238.366,366.256,238.62,368.474z"/>
				</g>
			</g>
		</g>
		<g>
			<g>
				<path style="fill:#0098B3;" d="M149.875,126.478c5.643,0.362,18.46,4.386,18.412,7.183c-0.066,2.64-12.83,2.617-18.416,2.059
					c-5.612-0.664-10.084-2.969-10.107-5.44C139.743,127.813,144.211,125.98,149.875,126.478z"/>
				<path style="fill:#0098B3;" d="M173.336,162.364c6.338,1.068,20.344,7.263,19.97,10.571c-0.375,3.122-14.773,1.552-21.025,0.205
					c-6.265-1.476-11.054-4.696-10.8-7.555C161.74,162.736,166.998,161.138,173.336,162.364z"/>
				<path style="fill:#0098B3;" d="M182.747,181.682c6.62,1.733,20.902,9.779,20.2,13.31c-0.683,3.327-15.778,0.193-22.272-1.858
					c-6.499-2.196-11.281-6.097-10.762-9.132C170.436,180.98,176.137,179.756,182.747,181.682z"/>
				<path style="fill:#0098B3;" d="M80.136,62.241c1.061,0.079,2.513,0.335,4.033,0.692c-1.751-1.243-3.476-2.599-4.595-3.567
					c-2.842-2.542-4.477-5.412-3.537-6.501c0.939-1.086,4.164,0.076,7.086,2.683c2.478,2.142,6.614,7.242,7.309,9.478
					c0.907,0.466,1.484,0.93,1.472,1.342c-0.002,0.051-0.036,0.097-0.057,0.145c2.826,1.464,5.632,2.986,8.412,4.576
					c-1.552-2.071-3.086-9.856-3.54-13.615c-0.433-4.301,0.616-7.735,2.547-7.602c1.926,0.132,3.941,3.824,4.296,8.17
					c0.421,4.244-0.678,13.192-2.45,13.532c0.344,0.198,0.683,0.408,1.025,0.608c0.312,0.102,0.54,0.237,0.684,0.406
					c5.331,3.141,10.568,6.514,15.699,10.117c-1.881-2.813-4.268-10.343-5.247-14.174c-1.105-4.766-0.584-8.789,1.434-8.934
					c2.013-0.146,4.732,3.724,5.798,8.583c1.132,4.709,1.293,14.837-0.513,15.558c0.124,0.089,0.251,0.174,0.375,0.263
					c0.586,0.293,1.031,0.595,1.257,0.906c4.757,3.455,9.419,7.105,13.966,10.954c-1.844-3.035-3.886-11.814-4.666-16.197
					c-0.813-5.287,0.068-9.615,2.283-9.58c2.204,0.03,4.859,4.508,5.62,9.905c0.871,5.365,0.118,16.826-2.022,16.926
					c5.451,4.678,10.738,9.635,15.835,14.873c-2.109-1.727-4.568-13.45-5.444-18.912c-0.789-5.823,0.202-10.564,2.566-10.487
					c2.357,0.073,5.155,5.055,5.892,11.022c0.879,6.012-0.202,18.902-2.575,18.593c-0.136-0.016-0.275-0.083-0.415-0.192
					c4.63,4.759,9.111,9.737,13.41,14.949c0.013,0.016,0.026,0.033,0.039,0.048c-0.928-4.685-0.887-13.698-0.666-18.362
					c0.455-6.221,2.607-10.829,5.166-10.09c2.551,0.73,4.444,6.624,3.865,12.954c-0.391,5.704-3.686,16.585-6.147,18.259
					c3.971,4.96,7.783,10.114,11.42,15.456c-0.977-5.065-0.838-15.166-0.588-20.352c0.515-6.808,2.776-11.874,5.475-11.091
					c2.685,0.777,4.689,7.238,4.052,14.205c-0.436,6.502-4.292,19.082-6.943,20.193c2.884,4.37,5.641,8.872,8.281,13.482
					c0.455-5.371,3.594-15.349,5.425-20.355c2.579-6.494,6.552-10.48,9.205-8.556c2.641,1.912,2.77,9.037-0.037,15.549
					c-2.293,5.677-9.18,15.379-12.637,16.816c0.939,1.702,1.868,3.413,2.772,5.146c2.535,4.866,4.916,9.867,7.162,14.971
					c0.087-6.25,1.926-16.843,3.025-22.411c1.765-7.716,5.148-13.084,8.045-11.642c2.886,1.428,4.034,9.278,2.074,17.175
					c-1.564,7.111-7.778,20.02-11.084,21.683c2.374,5.717,4.568,11.568,6.535,17.566c0.682-6.734,3.516-17.799,5.113-23.626
					c2.506-8.121,6.505-13.576,9.452-11.76c2.935,1.8,3.51,10.351,0.766,18.664c-2.245,7.503-9.956,20.786-13.599,22.267
					c0.805,2.669,1.581,5.355,2.298,8.076c-0.909,0.348-1.82,0.693-2.732,1.034c-0.354-1.414-0.741-2.811-1.119-4.212
					c0.012,0.191,0.029,0.385-0.019,0.553c-1.029,3.511-16.651-1.352-23.317-4.18c-6.651-2.983-11.346-7.612-10.531-10.804
					c0.819-3.182,6.94-3.961,13.744-1.277c5.98,2.167,17.69,10.11,19.823,14.576c-4.416-16.056-10.394-31.243-17.552-45.42
					c-3.698-7.315-7.726-14.351-12.025-21.12c-2.947,2.436-12.634,4.62-17.499,5.054c-5.904,0.476-10.955-1.149-11.404-3.792
					c-0.445-2.645,3.85-5.521,9.718-6.268c4.137-0.592,12.195-0.157,16.742,1.239c-4.251-6.431-8.745-12.615-13.48-18.508
					c-3.277-4.078-6.675-8.007-10.159-11.818c-1.758,2.225-11.191,4.499-15.744,5.054c-5.164,0.567-9.63-0.655-10.103-2.911
					c-0.469-2.249,3.218-4.822,8.369-5.56c3.727-0.607,11.161-0.324,15.132,0.863c-4.357-4.63-8.865-9.051-13.503-13.264
					c-0.857,2.14-10.286,4.687-14.713,5.371c-4.781,0.666-8.952-0.322-9.45-2.384c-0.492-2.058,2.867-4.519,7.638-5.329
					c3.557-0.672,10.824-0.578,14.446,0.492c-4.959-4.401-10.06-8.569-15.293-12.489c-1.647,1.621-10.221,2.539-14.247,2.61
					c-4.528-0.003-8.295-1.403-8.534-3.336c-0.235-1.927,3.191-3.711,7.766-3.793c2.674-0.099,7.415,0.549,10.918,1.525
					c-4.744-3.397-9.585-6.595-14.511-9.595c-0.809,1.939-7.802,5.364-11.237,6.581c-3.839,1.306-7.432,1.128-8.141-0.505
					c-0.705-1.629,1.721-4.173,5.537-5.576c2.726-1.053,8.341-2.081,11.55-1.898c-2.992-1.775-6.019-3.465-9.068-5.092
					c-1.605,1.022-8.246,1.077-11.367,0.822c-3.569-0.346-6.455-1.727-6.501-3.219C73.636,62.964,76.502,61.913,80.136,62.241z"/>
			</g>
			<g>
				<path style="fill:#0098B3;" d="M165.379,371.333c3.301,1.28,11.641,2.369,12.35,0.768c0.657-1.517-6.599-4.865-9.919-6.019
					c-3.363-1.1-6.51-0.969-7.174,0.429C159.975,367.907,162.031,370.125,165.379,371.333z"/>
				<path style="fill:#0098B3;" d="M188.155,357.126c3.882,1.062,13.468,1.231,14.127-0.747c0.609-1.872-7.983-4.772-11.889-5.652
					c-3.948-0.811-7.516-0.243-8.124,1.448C181.666,353.861,184.232,356.154,188.155,357.126z"/>
				<path style="fill:#0098B3;" d="M198.588,348.63c4.217,0.758,14.448-0.051,14.979-2.242c0.488-2.069-8.912-4.264-13.141-4.809
					c-4.27-0.464-8.014,0.493-8.518,2.354C191.409,345.788,194.326,347.984,198.588,348.63z"/>
				<path style="fill:#0098B3;" d="M108.851,389.46c0.623,0.234,1.516,0.471,2.473,0.669c-1.322,0.245-2.659,0.561-3.55,0.816
					c-2.284,0.695-3.968,1.895-3.721,2.762c0.248,0.864,2.386,1.054,4.732,0.341c1.972-0.565,5.664-2.372,6.647-3.459
					c0.638-0.026,1.088-0.137,1.19-0.375c0.012-0.03,0.005-0.065,0.006-0.097c1.991-0.088,3.985-0.213,5.983-0.384
					c-1.427,0.768-4.348,4.786-5.596,6.802c-1.379,2.329-1.687,4.556-0.555,4.989c1.129,0.432,3.246-1.135,4.591-3.509
					c1.356-2.3,3.088-7.672,2.171-8.332c0.247-0.022,0.495-0.052,0.743-0.076c0.204,0.024,0.369,0.007,0.496-0.051
					c3.855-0.38,7.718-0.918,11.582-1.613c-1.809,1.103-5.148,4.751-6.713,6.67c-1.882,2.416-2.646,4.839-1.538,5.452
					c1.105,0.613,3.668-0.87,5.553-3.349c1.883-2.377,4.641-8.087,3.805-8.973c0.094-0.018,0.188-0.033,0.282-0.051
					c0.41-0.012,0.742-0.067,0.952-0.184c3.612-0.71,7.221-1.556,10.817-2.545c-1.847,1.239-5.318,5.688-6.915,7.972
					c-1.854,2.789-2.493,5.479-1.226,6.043c1.259,0.563,3.947-1.281,5.8-4.146c1.907-2.818,4.497-9.527,3.308-10.147
					c4.328-1.222,8.637-2.646,12.911-4.279c-1.653,0.426-6.136,6.437-8.072,9.309c-1.981,3.1-2.667,6.054-1.304,6.633
					c1.358,0.579,4.259-1.514,6.249-4.71c2.082-3.183,4.863-10.79,3.433-11.24c-0.082-0.026-0.178-0.025-0.286,0
					c3.883-1.484,7.739-3.132,11.554-4.96c0.012-0.006,0.023-0.012,0.035-0.017c-1.76,2.417-4.111,7.548-5.213,10.255
					c-1.379,3.654-1.371,6.838,0.277,7.092c1.642,0.257,4.268-2.593,5.607-6.341c1.28-3.343,2.273-10.392,1.316-11.99
					c3.562-1.772,7.084-3.696,10.557-5.773c-1.889,2.62-4.47,8.394-5.693,11.406c-1.5,4.003-1.55,7.476,0.19,7.742
					c1.73,0.266,4.569-2.877,6.042-7.002c1.464-3.808,2.587-11.969,1.373-13.298c2.789-1.723,5.54-3.554,8.254-5.478
					c-1.156,3.171-2,9.665-2.278,12.991c-0.245,4.368,0.963,7.678,2.976,7.284c2.004-0.391,3.953-4.404,4.073-8.842
					c0.192-3.828-1.165-11.153-2.751-12.88c0.982-0.72,1.96-1.447,2.93-2.194c2.721-2.097,5.39-4.31,8.01-6.618
					c-1.596,3.573-3.341,10.075-4.182,13.527c-1.029,4.848-0.521,8.788,1.505,8.732c2.015-0.051,4.734-4.208,5.701-9.21
					c0.984-4.451,0.853-13.42-0.587-15.235c2.854-2.622,5.641-5.368,8.338-8.258c-1.385,4.005-2.689,11.036-3.316,14.767
					c-0.715,5.273,0.12,9.425,2.273,9.169c2.141-0.25,4.719-4.955,5.349-10.4c0.701-4.853-0.182-14.428-1.862-16.229
					c1.16-1.304,2.308-2.626,3.432-3.982c-0.424-0.437-0.851-0.873-1.28-1.307c-0.573,0.71-1.161,1.402-1.745,2.098
					c0.057-0.105,0.118-0.211,0.135-0.319c0.34-2.266-9.815-3.617-14.346-3.765c-4.563-0.057-8.449,1.337-8.827,3.364
					c-0.373,2.023,2.899,4.077,7.471,4.344c3.967,0.344,12.711-1.085,15.098-3.061c-6.736,7.958-14.131,15.011-21.929,21.179
					c-4.026,3.182-8.167,6.118-12.391,8.831c-1.033-2.16-5.96-5.951-8.609-7.479c-3.228-1.825-6.526-2.232-7.477-0.849
					c-0.949,1.385,0.733,4.15,3.87,6.119c2.194,1.426,6.886,3.3,9.836,3.704c-4.108,2.534-8.289,4.863-12.531,6.964
					c-2.935,1.454-5.9,2.791-8.883,4.038c-0.413-1.727-5.172-5.502-7.612-7.016c-2.784-1.682-5.643-2.163-6.506-1.007
					c-0.859,1.154,0.558,3.586,3.29,5.362c1.957,1.326,6.255,3.123,8.823,3.494c-3.694,1.483-7.419,2.807-11.163,3.979
					c0.077-1.441-4.609-5.371-6.944-6.925c-2.54-1.637-5.17-2.174-5.996-1.134c-0.822,1.039,0.439,3.322,2.936,5.038
					c1.844,1.318,5.997,3.178,8.336,3.524c-3.976,1.194-7.971,2.219-11.976,3.068c-0.509-1.355-5.137-4.134-7.405-5.234
					c-2.573-1.191-5.081-1.387-5.726-0.352c-0.641,1.033,0.835,2.948,3.413,4.199c1.493,0.76,4.357,1.64,6.604,2.008
					c-3.589,0.68-7.181,1.223-10.769,1.63c0.051-1.315-3.02-5.102-4.65-6.697c-1.837-1.753-3.924-2.598-4.757-1.857
					c-0.829,0.74-0.121,2.824,1.677,4.626c1.271,1.316,4.19,3.378,6.061,4.12c-2.167,0.22-4.331,0.383-6.492,0.505
					c-0.643-1.003-4.4-2.783-6.241-3.46c-2.119-0.743-4.122-0.718-4.54,0.117C105.349,387.338,106.7,388.689,108.851,389.46z"/>
			</g>
			<g>
				<path style="fill:#0098B3;" d="M311.004,118.479c-3.869,0.988-12.237,5.455-11.839,7.389c0.391,1.823,9.245,0.14,13.049-0.977
					c3.807-1.194,6.61-3.377,6.303-5.095C318.209,118.082,314.869,117.394,311.004,118.479z"/>
				<path style="fill:#0098B3;" d="M299.411,146.447c-4.259,1.569-13.169,7.697-12.477,9.944c0.668,2.117,10.454-0.853,14.617-2.604
					c4.155-1.843,7.058-4.703,6.507-6.654C307.506,145.19,303.649,144.768,299.411,146.447z"/>
				<path style="fill:#0098B3;" d="M295.403,161.082c-4.367,2.067-13.227,9.516-12.279,11.875
					c0.908,2.219,10.974-1.927,15.212-4.199c4.223-2.373,7.032-5.704,6.275-7.743C303.855,158.986,299.739,158.882,295.403,161.082z
					"/>
				<path style="fill:#0098B3;" d="M351.007,64.794c-0.726,0.193-1.7,0.561-2.708,1.007c1.053-1.091,2.072-2.257,2.723-3.076
					c1.64-2.135,2.4-4.34,1.605-4.973c-0.794-0.631-2.88,0.597-4.566,2.788c-1.44,1.81-3.644,5.89-3.834,7.532
					c-0.569,0.442-0.909,0.839-0.846,1.123c0.008,0.035,0.038,0.063,0.058,0.093c-1.77,1.385-3.518,2.807-5.24,4.274
					c0.807-1.64,0.854-7.242,0.678-9.911c-0.261-3.042-1.438-5.287-2.76-4.943c-1.32,0.343-2.235,3.169-1.914,6.23
					c0.262,3,2.193,9.066,3.467,9.07c-0.212,0.183-0.42,0.372-0.632,0.556c-0.203,0.111-0.344,0.235-0.422,0.371
					c-3.289,2.876-6.483,5.901-9.573,9.071c0.938-2.198,1.611-7.735,1.79-10.521c0.144-3.451-0.743-6.175-2.162-6.012
					c-1.416,0.162-2.797,3.202-2.902,6.713c-0.171,3.415,1.04,10.465,2.388,10.729c-0.075,0.078-0.151,0.154-0.226,0.232
					c-0.368,0.279-0.637,0.548-0.754,0.793c-2.85,3.019-5.608,6.16-8.26,9.426c0.883-2.347,1.153-8.706,1.122-11.849
					c-0.126-3.775-1.303-6.663-2.835-6.35c-1.525,0.308-2.783,3.763-2.606,7.607c0.097,3.836,2.116,11.691,3.614,11.481
					c-3.171,3.958-6.193,8.089-9.046,12.389c1.238-1.474,1.413-9.93,1.308-13.835c-0.213-4.144-1.52-7.304-3.15-6.942
					c-1.626,0.358-2.917,4.181-2.649,8.418c0.175,4.287,2.609,13.09,4.216,12.566c0.092-0.029,0.18-0.093,0.263-0.188
					c-2.591,3.908-5.051,7.947-7.353,12.125c-0.007,0.013-0.014,0.026-0.021,0.039c0.032-3.372-1.174-9.622-1.936-12.829
					c-1.129-4.257-3.223-7.174-4.903-6.327c-1.675,0.84-2.218,5.177-0.99,9.494c1.017,3.907,4.725,11.028,6.65,11.868
					c-2.108,3.96-4.08,8.035-5.905,12.217c0.016-3.642-1.399-10.634-2.25-14.2c-1.247-4.657-3.477-7.877-5.248-6.981
					c-1.762,0.89-2.309,5.635-0.957,10.386c1.152,4.455,5.471,12.681,7.456,13.106c-1.431,3.409-2.756,6.893-3.985,10.438
					c-1.018-3.668-4.499-10.182-6.424-13.416c-2.637-4.17-5.916-6.417-7.505-4.735c-1.583,1.672-0.742,6.633,2.057,10.785
					c2.333,3.64,8.38,9.473,10.966,10.018c-0.429,1.304-0.85,2.613-1.251,3.933c-1.124,3.708-2.122,7.489-3.015,11.324
					c-0.877-4.326-3.537-11.437-5.027-15.157c-2.233-5.124-5.281-8.407-7.104-7.028c-1.816,1.368-1.587,6.965,0.804,12.19
					c2.014,4.73,8.012,12.877,10.524,13.598c-0.901,4.277-1.659,8.624-2.241,13.044c-1.353-4.583-4.765-11.892-6.634-15.727
					c-2.8-5.308-6.287-8.571-8.096-6.926c-1.801,1.633-1.084,7.642,1.907,13.052c2.538,4.914,9.624,13.124,12.346,13.676
					c-0.21,1.957-0.398,3.923-0.54,5.904c0.676,0.123,1.353,0.243,2.031,0.361c0.061-1.028,0.147-2.048,0.227-3.069
					c0.017,0.134,0.03,0.271,0.085,0.381c1.173,2.302,11.378-3.113,15.635-5.946c4.226-2.939,6.879-6.764,5.897-8.873
					c-0.984-2.101-5.333-1.842-9.704,0.909c-3.867,2.285-10.955,9.327-11.852,12.704c0.967-11.719,3.131-23.039,6.247-33.811
					c1.61-5.559,3.487-10.968,5.586-16.227c2.363,1.306,9.371,1.556,12.803,1.222c4.159-0.441,7.452-2.228,7.419-4.121
					c-0.037-1.893-3.393-3.329-7.562-3.08c-2.948,0.129-8.483,1.484-11.456,3.047c2.109-5.018,4.42-9.896,6.937-14.604
					c1.742-3.258,3.586-6.428,5.506-9.528c1.51,1.314,8.353,1.66,11.585,1.451c3.658-0.281,6.597-1.713,6.631-3.34
					c0.031-1.622-2.863-2.926-6.534-2.765c-2.665,0.065-7.788,1.233-10.388,2.575c2.419-3.782,4.969-7.438,7.638-10.968
					c0.874,1.373,7.75,1.909,10.912,1.805c3.404-0.162,6.17-1.393,6.246-2.889c0.073-1.492-2.58-2.762-5.996-2.7
					c-2.556-0.002-7.587,1.013-9.96,2.229c2.867-3.702,5.862-7.261,8.981-10.664c1.355,0.91,7.424,0.427,10.227-0.05
					c3.142-0.593,5.573-2.057,5.486-3.43c-0.089-1.368-2.699-2.158-5.885-1.617c-1.868,0.281-5.073,1.35-7.377,2.485
					c2.848-2.977,5.79-5.829,8.816-8.554c0.815,1.24,6.115,2.703,8.657,3.099c2.835,0.405,5.305-0.188,5.583-1.414
					c0.276-1.222-1.739-2.671-4.571-3.146c-2.03-0.375-6.06-0.355-8.263,0.192c1.845-1.623,3.724-3.19,5.628-4.718
					c1.247,0.5,5.863-0.33,7.995-0.915c2.432-0.707,4.254-2.042,4.091-3.083C355.612,64.446,353.486,64.091,351.007,64.794z"/>
			</g>
			<g>
				<path style="fill:#0098B3;" d="M212.017,207.458c-17.614-30.292-58.559-63.538-99.234-68.566
					c15.984,4.522,62.408,17.277,96.909,69.578C210.673,210.202,213.028,209.783,212.017,207.458z"/>
				<path style="fill:#006784;" d="M223.085,128.433c-10.951,0.864-35.729,27.404-36.685,49.147
					C197.949,171.04,218.67,146.492,223.085,128.433z"/>
				<path style="fill:#006784;" d="M172.425,229.119c7.164-5.125,17.246-28.529,13.976-51.539
					C177.719,187.836,170.304,211.101,172.425,229.119z"/>
				<path style="fill:#006784;" d="M178.905,170.539c9.147-7.011,22.867-34.763,19.03-68.739
					C183.371,130.487,179.968,150.871,178.905,170.539z"/>
				<path style="fill:#006784;" d="M146.063,230.779c-2.979-17.379,14.881-51.288,32.842-60.241
					C177.642,186.354,159.584,216.411,146.063,230.779z"/>
				<path style="fill:#006784;" d="M171.173,164.698c6.214-6.265,10.394-40.358-4.823-64.533
					C164.342,130.283,171.173,164.698,171.173,164.698z"/>
				<path style="fill:#006784;" d="M120.033,210.135c12.146-12.218,44.784-36.193,51.202-44.251
					C158.664,164.156,133.712,175.848,120.033,210.135z"/>
				<path style="fill:#006784;" d="M161.976,159.23c-11.758-3.255-44.707,3.204-59.761,39.642
					C121.724,185.383,147.525,167.11,161.976,159.23z"/>
				<path style="fill:#006784;" d="M141.194,96.414c15.539,13.163,24.997,40.905,21.921,61.866
					C153.703,148.663,143.718,116.491,141.194,96.414z"/>
				<path style="fill:#006784;" d="M151.5,152.046c0.276-11.901-12.631-37.384-33.306-46.419
					C124.699,122.229,142.257,145.689,151.5,152.046z"/>
				<path style="fill:#006784;" d="M86.9,178.566c11.503-7.43,53.174-17.608,64.958-25.35
					C139.134,148.525,107.371,154.922,86.9,178.566z"/>
				<path style="fill:#006784;" d="M136.625,145.98c-20.056-2.826-45.846,4.154-63.098,21.093
					C87.427,165.76,120.197,150.098,136.625,145.98z"/>
				<path style="fill:#006784;" d="M100.422,112.489c15.079,4.272,31.605,13.521,34.379,32.694
					C121.239,135.781,100.422,112.489,100.422,112.489z"/>
				<path style="fill:#006784;" d="M122.389,140.773c-4.221-6.914-18.339-21.339-38.432-19.112
					C101.06,130.583,114.423,136.133,122.389,140.773z"/>
				<path style="fill:#006784;" d="M69.67,155.683c17.226-5.943,43.859-13.858,52.719-14.91
					C108.245,137.344,86.216,142.346,69.67,155.683z"/>
				<path style="fill:#006784;" d="M66.517,140.691c14.354-4.011,41.804-1.865,52.566-0.638
					C102.869,131.084,84.106,130.272,66.517,140.691z"/>
			</g>
			<g>
				<path style="fill:#0098B3;" d="M291.331,150.293c6.152-16.272,23.489-35.896,42.997-41.68
					c-7.458,3.52-29.15,13.556-41.775,41.985C292.214,151.527,291.026,151.515,291.331,150.293z"/>
				<path style="fill:#006784;" d="M279.458,112.498c5.433-0.471,19.734,10.503,21.977,21.072
					C295.247,131.311,283.095,120.981,279.458,112.498z"/>
				<path style="fill:#006784;" d="M312.488,157.668c-3.927-1.925-10.775-12.562-11.052-24.097
					C306.525,137.884,312.055,148.671,312.488,157.668z"/>
				<path style="fill:#006784;" d="M304.532,129.51c-5.052-2.686-14.037-15.156-14.932-32.107
					C299.074,110.261,302.405,119.965,304.532,129.51z"/>
				<path style="fill:#006784;" d="M325.533,156.329c0.04-8.754-11.475-23.901-21.002-26.818
					C306.441,137.152,317.739,150.396,325.533,156.329z"/>
				<path style="fill:#006784;" d="M307.841,126.019c-3.554-2.561-8.385-18.915-2.907-31.996
					C308.376,108.607,307.841,126.019,307.841,126.019z"/>
				<path style="fill:#006784;" d="M336.595,144.094c-6.946-4.991-24.886-14.067-28.687-17.489
					C313.922,124.732,327.096,128.42,336.595,144.094z"/>
				<path style="fill:#006784;" d="M311.899,122.59c5.492-2.554,22.155-2.082,32.502,14.533
					C333.745,132.11,319.619,125.269,311.899,122.59z"/>
				<path style="fill:#006784;" d="M316.946,90.132c-6.535,7.715-8.901,22.072-5.683,32.086
					C315.087,116.74,317.35,100.17,316.946,90.132z"/>
				<path style="fill:#006784;" d="M316.442,118.216c-1.107-5.805,3.133-19.339,12.52-25.451
					C327.132,101.427,320.449,114.349,316.442,118.216z"/>
				<path style="fill:#006784;" d="M350.242,125.929c-6.24-2.699-27.477-4.281-33.88-7.11
					C322.21,115.482,338.287,116.022,350.242,125.929z"/>
				<path style="fill:#006784;" d="M323.231,114.032c9.591-3.021,22.79-1.709,32.621,5.177
					C348.939,119.701,331.612,114.707,323.231,114.032z"/>
				<path style="fill:#006784;" d="M338.225,94.675c-7.036,3.323-14.373,9.202-14.166,18.817
					C329.932,107.781,338.225,94.675,338.225,94.675z"/>
				<path style="fill:#006784;" d="M329.777,110.319c1.502-3.73,7.238-11.947,17.259-12.497
					C339.39,103.588,333.299,107.396,329.777,110.319z"/>
				<path style="fill:#006784;" d="M356.811,113.316c-8.921-1.504-22.609-3.205-27.034-2.997
					C336.424,107.485,347.62,108.136,356.811,113.316z"/>
				<path style="fill:#006784;" d="M357.131,105.717c-7.357-0.792-20.624,2.5-25.794,3.979
					C338.545,103.981,347.667,102.051,357.131,105.717z"/>
			</g>
			<g>
				<path style="fill:#0098B3;" d="M185.007,206.973c-4.625-8.491-20.897-9.605-28.637-9.899c-7.74-0.293-11.22,2.196-11.22,2.196
					s0.19,0.483,1.795,0.779c-5.233-0.538-8.104,2.082-8.104,2.082s0.313,1.736,1.566,1.613c-3.053,0.275-7.757,3.433-7.757,3.433
					s0.279,2.121,1.727,1.55c-2.892,0.211-5.826,2.671-5.826,2.671s0.669,1.224,1.439,1.292c-3.121,1.045-7.469,3.691-7.469,3.691
					s1.371,2.062,2.015,1.808c-2.638,0.855-6.03,4.982-6.03,4.982s1.024,0.711,1.892,0.555c-2.833,1.304-4.87,4.153-4.87,4.153
					s1.025,0.711,1.507,0.521c-2.769,1.464-4.391,4.894-4.391,4.894s1.088,0.872,1.829,0.394c-3.286,2.04-4.099,4.221-4.099,4.221
					s1.058,0.326,1.702,0.072c-3.489,4.352-3.79,6.888-3.79,6.888l1.38,0.199c0,0-3.65,4.415-4.01,5.859
					c0.961,0.551,1.702,0.072,1.702,0.072s-4.357,4.508-5.17,6.689c1.283,0.424,1.799-0.152,1.799-0.152s-4.273,7.078-5.505,9.61
					c7.206-2.472,9.044-3.94,9.044-3.94l0.055,2.024c0,0,4.988-1.968,7.147-3.564c-0.233,1.766,1.206,3.057,1.206,3.057
					s4.637-2.387,5.865-3.988c-0.652,2.117,0.304,3.599,0.304,3.599s6.914-1.799,8.011-2.789c-0.872,1.088-0.491,2.053-0.491,2.053
					s5.822-1.739,7.016-2.954c-0.36,1.444,0.601,1.994,0.601,1.994s7.24-2.857,9.561-4.516c-0.487,1.122,0.503,2.219,0.503,2.219
					s3.095-2.523,3.997-3.065c-0.424,1.283,0.567,2.379,0.567,2.379s1.906-2.24,2.939-3.391c0.157,0.868,1.181,1.579,1.181,1.579
					s4.031-3.45,5.098-4.987c0.123,1.253,0.537,1.833,0.537,1.833s7.313-4.559,8.257-7.349c-0.136,1.541,0.47,2.604,0.47,2.604
					s4.294-4.669,5.556-6.655c0.22,1.029,1.405,1.677,1.405,1.677S192.427,220.595,185.007,206.973z"/>
				<path style="fill:#00809C;" d="M98.657,267.085c-0.06,0.021-0.113,0.04-0.174,0.061c1.232-2.532,5.505-9.61,5.505-9.61
					s-0.517,0.576-1.799,0.152c0.813-2.18,5.17-6.689,5.17-6.689s-0.741,0.478-1.702-0.072c0.36-1.444,4.011-5.859,4.011-5.859
					l-1.38-0.199c0,0,0.301-2.536,3.79-6.888c-0.644,0.254-1.702-0.072-1.702-0.072s0.813-2.18,4.099-4.221
					c-0.741,0.478-1.829-0.394-1.829-0.394s1.622-3.429,4.391-4.894c-0.483,0.191-1.507-0.521-1.507-0.521s2.037-2.849,4.869-4.153
					c-0.868,0.156-1.892-0.555-1.892-0.555s3.392-4.128,6.03-4.983c-0.644,0.254-2.015-1.808-2.015-1.808s4.349-2.646,7.469-3.691
					c-0.771-0.068-1.439-1.292-1.439-1.292s2.532-2.119,5.21-2.591c0.178,0.029,0.38,0.013,0.616-0.08
					c-0.206,0.015-0.411,0.044-0.616,0.08c-0.912-0.15-1.111-1.63-1.111-1.63s4.704-3.158,7.757-3.433
					c-1.253,0.122-1.566-1.613-1.566-1.613s2.871-2.62,8.104-2.082c-1.605-0.297-1.795-0.779-1.795-0.779s3.481-2.489,11.22-2.196
					c7.392,0.28,22.559,1.314,27.937,8.804c-13.748,9.109-46.058,30.548-54.795,36.633
					C119.81,249.27,107.537,258.686,98.657,267.085z"/>
				<path style="fill:#005171;" d="M203.625,195.722l-2.206-2.291c0,0-58.248,38.006-81.111,55.695
					C128.932,243.136,185.812,206.656,203.625,195.722z"/>
			</g>
			<g>
				<path style="fill:#0098B3;" d="M177.26,106.971c5.58-1.43,8.602-10.663,9.903-15.09c1.301-4.426,0.372-6.8,0.372-6.8
					s-0.307,0.039-0.712,0.923c1.076-2.943-0.017-4.984-0.017-4.984s-1.048-0.073-1.161,0.669c0.288-1.803-0.848-4.981-0.848-4.981
					s-1.266-0.149-1.148,0.771c0.301-1.701-0.69-3.755-0.69-3.755s-0.804,0.207-0.956,0.642c-0.147-1.955-1.039-4.853-1.039-4.853
					s-1.391,0.491-1.339,0.899c-0.108-1.648-1.996-4.21-1.996-4.21s-0.561,0.488-0.597,1.012c-0.339-1.826-1.686-3.419-1.686-3.419
					s-0.561,0.488-0.521,0.794c-0.441-1.813-2.184-3.251-2.184-3.251s-0.663,0.501-0.495,0.999
					c-0.698-2.196-1.838-2.984-1.838-2.984s-0.343,0.564-0.291,0.972c-2.003-2.651-3.423-3.196-3.423-3.196l-0.317,0.768
					c0,0-2.016-2.753-2.797-3.173c-0.458,0.474-0.29,0.972-0.29,0.972s-1.967-3.175-3.107-3.964
					c-0.432,0.679-0.175,1.061-0.175,1.061s-3.463-3.502-4.745-4.584c0.374,4.523,0.953,5.799,0.953,5.799l-1.177-0.264
					c0,0,0.407,3.168,1.013,4.648c-0.986-0.393-1.942,0.25-1.942,0.25s0.701,3.027,1.445,3.97c-1.127-0.686-2.123-0.35-2.123-0.35
					s0.028,4.256,0.439,5.034c-0.501-0.663-1.114-0.584-1.114-0.584s0.153,3.616,0.68,4.483c-0.781-0.419-1.239,0.056-1.239,0.056
					s0.591,4.599,1.21,6.181c-0.577-0.445-1.355-0.034-1.355-0.034s1.004,2.156,1.185,2.756c-0.679-0.432-1.457-0.021-1.457-0.021
					s1.015,1.428,1.529,2.193c-0.524-0.036-1.085,0.451-1.085,0.451s1.403,2.832,2.134,3.673c-0.742-0.112-1.137,0.042-1.137,0.042
					s1.564,4.889,3.037,5.843c-0.87-0.304-1.572-0.109-1.572-0.109s2.069,3.162,3.031,4.181c-0.626-0.023-1.174,0.566-1.174,0.566
					S168.309,109.265,177.26,106.971z"/>
				<path style="fill:#00809C;" d="M155.172,48.317c-0.003-0.038-0.007-0.071-0.01-0.109c1.282,1.082,4.745,4.584,4.745,4.584
					s-0.257-0.382,0.175-1.061c1.14,0.788,3.107,3.964,3.107,3.964s-0.168-0.498,0.291-0.972c0.781,0.419,2.797,3.173,2.797,3.173
					l0.317-0.768c0,0,1.421,0.544,3.423,3.196c-0.053-0.409,0.291-0.972,0.291-0.972s1.14,0.789,1.838,2.984
					c-0.168-0.498,0.495-0.999,0.495-0.999s1.743,1.438,2.184,3.251c-0.039-0.307,0.521-0.794,0.521-0.794s1.348,1.593,1.686,3.419
					c0.036-0.524,0.597-1.012,0.597-1.012s1.888,2.562,1.996,4.21c-0.053-0.409,1.339-0.899,1.339-0.899s0.892,2.898,1.039,4.853
					c0.152-0.435,0.956-0.642,0.956-0.642s0.854,1.772,0.734,3.387c-0.043,0.098-0.063,0.218-0.044,0.368
					c0.021-0.121,0.035-0.244,0.044-0.368c0.22-0.505,1.104-0.403,1.104-0.403s1.136,3.178,0.848,4.981
					c0.112-0.742,1.161-0.669,1.161-0.669s1.093,2.041,0.017,4.984c0.406-0.883,0.713-0.923,0.713-0.923s0.929,2.374-0.372,6.8
					c-1.243,4.228-4.057,12.835-9.169,14.846c-3.25-9.271-10.907-31.063-13.143-36.999
					C162.367,63.138,158.724,54.674,155.172,48.317z"/>
				<path style="fill:#005171;" d="M181.035,119.368l1.645-0.939c0,0-13.431-39.194-20.303-54.983
					C164.576,69.302,177.326,107.482,181.035,119.368z"/>
			</g>
			<g>
				<path style="fill:#006784;" d="M177.717,361.665c2.248-5.303-3.259-13.307-5.989-17.027c-2.73-3.719-5.18-4.421-5.18-4.421
					s-0.155,0.268,0.301,1.126c-1.687-2.641-3.973-3.01-3.973-3.01s-0.694,0.789-0.173,1.328c-1.259-1.323-4.475-2.348-4.475-2.348
					s-0.886,0.916-0.083,1.38c-1.17-1.271-3.404-1.729-3.404-1.729s-0.323,0.765-0.069,1.15c-1.644-1.069-4.488-2.118-4.488-2.118
					s-0.454,1.404-0.097,1.61c-1.376-0.914-4.558-0.968-4.558-0.968s0.048,0.742,0.442,1.089c-1.657-0.839-3.741-0.734-3.741-0.734
					s0.048,0.742,0.315,0.896c-1.709-0.75-3.91-0.236-3.91-0.236s-0.004,0.831,0.494,0.999c-2.169-0.777-3.487-0.349-3.487-0.349
					s0.24,0.615,0.597,0.821c-3.323-0.016-4.617,0.783-4.617,0.783l0.418,0.718c0,0-3.412-0.068-4.219,0.299
					c0.099,0.652,0.597,0.821,0.597,0.821s-3.717-0.363-5.036,0.065c0.277,0.755,0.738,0.783,0.738,0.783s-4.885,0.628-6.523,0.991
					c3.822,2.447,5.188,2.76,5.188,2.76l-0.924,0.775c0,0,2.766,1.598,4.31,2.015c-0.91,0.545-0.979,1.695-0.979,1.695
					s2.831,1.279,4.033,1.259c-1.229,0.48-1.566,1.475-1.566,1.475s3.4,2.56,4.268,2.704c-0.831-0.004-1.14,0.531-1.14,0.531
					s2.968,2.072,3.977,2.179c-0.807,0.367-0.708,1.019-0.708,1.019s4.015,2.32,5.648,2.788c-0.704,0.188-0.849,1.057-0.849,1.057
					s2.324,0.51,2.91,0.73c-0.755,0.278-0.9,1.146-0.9,1.146s1.751,0.06,2.671,0.115c-0.347,0.395-0.299,1.136-0.299,1.136
					s3.103,0.603,4.215,0.532c-0.539,0.521-0.656,0.93-0.656,0.93s4.835,1.723,6.487,1.13c-0.769,0.508-1.041,1.184-1.041,1.184
					s3.769,0.274,5.163,0.127c-0.398,0.484-0.262,1.277-0.262,1.277S174.111,370.172,177.717,361.665z"/>
				<path style="fill:#00809C;" d="M117.689,343.643c-0.032-0.02-0.061-0.038-0.093-0.059c1.638-0.363,6.523-0.991,6.523-0.991
					s-0.46-0.028-0.738-0.783c1.318-0.428,5.036-0.065,5.036-0.065s-0.498-0.169-0.597-0.821c0.807-0.367,4.219-0.299,4.219-0.299
					l-0.418-0.718c0,0,1.295-0.799,4.617-0.783c-0.357-0.206-0.597-0.821-0.597-0.821s1.318-0.428,3.487,0.349
					c-0.498-0.169-0.494-0.999-0.494-0.999s2.201-0.513,3.91,0.236c-0.268-0.155-0.315-0.896-0.315-0.896s2.084-0.105,3.741,0.734
					c-0.395-0.347-0.442-1.088-0.442-1.088s3.182,0.053,4.558,0.968c-0.357-0.206,0.097-1.61,0.097-1.61s2.845,1.049,4.488,2.117
					c-0.254-0.385,0.069-1.15,0.069-1.15s1.927,0.396,3.138,1.471c0.052,0.094,0.135,0.182,0.266,0.258
					c-0.083-0.09-0.173-0.176-0.266-0.258c-0.268-0.481,0.349-1.122,0.349-1.122s3.216,1.025,4.475,2.348
					c-0.521-0.539,0.173-1.328,0.173-1.328s2.286,0.369,3.973,3.01c-0.456-0.858-0.301-1.126-0.301-1.126s2.45,0.702,5.18,4.421
					c2.607,3.552,7.743,11.012,6.24,16.295c-9.342-3.04-31.311-10.173-37.387-11.996
					C133.836,346.914,124.897,344.676,117.689,343.643z"/>
				<path style="fill:#005171;" d="M189.863,366.184l0.252-1.878c0,0-39.306-13.098-56.027-17.213
					C140.076,348.897,178.163,361.922,189.863,366.184z"/>
			</g>
		</g>
		<g>
			<path style="fill:#EAF6FE;" d="M341.874,400.934c0.419,4.666-45.984,12.99-103.617,18.586
				c-57.637,5.593-104.705,6.339-105.115,1.674c-0.409-4.671,45.975-12.991,103.618-18.586
				C294.402,397.011,341.461,396.26,341.874,400.934z"/>
			<g>
				<path style="fill:#104765;" d="M296.375,406.661l-117.509,12.756h-11.553c-8.804,0-15.941-8.196-15.941-18.306V99.174
					c0-10.111,7.137-18.307,15.941-18.307h11.553l117.509,12.757c8.804,0,15.941,7.578,15.941,16.927v279.183
					C312.316,399.083,305.179,406.661,296.375,406.661z"/>
				<rect x="151.371" y="111.167" style="fill:#0B374F;" width="40.428" height="10.298"/>
				<rect x="151.371" y="381.217" style="fill:#0B374F;" width="40.428" height="10.297"/>
				<path style="fill:#0B374F;" d="M296.375,93.624l-117.51-12.757h-11.553c-8.804,0-15.941,8.196-15.941,18.307v3.439h12.177
					l148.49,4.848C310.669,99.591,304.184,93.624,296.375,93.624z"/>
				<path style="fill:#0B374F;" d="M151.371,401.111c0,10.11,7.137,18.306,15.941,18.306h11.553l117.51-12.757
					c7.405,0,13.613-0.742,15.404-8.009l-160.408-0.436V401.111z"/>
				<g>
					<path style="fill:#155E84;" d="M307.928,406.661l-129.063,12.756c-8.804,0-15.941-8.196-15.941-18.306V99.174
						c0-10.111,7.137-18.307,15.941-18.307l129.063,12.757c8.804,0,15.941,7.578,15.941,16.927v279.183
						C323.869,399.083,316.732,406.661,307.928,406.661z"/>
					
						<linearGradient id="SVGID_1_" gradientUnits="userSpaceOnUse" x1="7142.8735" y1="301.1652" x2="7276.3672" y2="141.2772" gradientTransform="matrix(-1 0 0 1 7423.8306 0)">
						<stop  offset="0" style="stop-color:#3CBEEF"/>
						<stop  offset="1" style="stop-color:#3AE8FE"/>
					</linearGradient>
					<path style="fill:url(#SVGID_1_);" d="M305.664,403.509l-124.534,12.5c-8.495,0-15.382-8.031-15.382-17.938V102.215
						c0-9.907,6.887-17.938,15.382-17.938l124.534,12.5c8.495,0,15.381,7.426,15.381,16.586v273.56
						C321.045,396.083,314.159,403.509,305.664,403.509z"/>
					<g style="opacity:0.27;">
						<g>
							<g>
								<path style="fill:#155E84;" d="M234.67,174.182l-56.098-2.938c-2.333-0.122-4.224-2.112-4.224-4.445v-37.227
									c0-2.333,1.891-4.062,4.224-3.863l56.098,4.799c2.333,0.2,4.224,2.164,4.224,4.387v35.481
									C238.894,172.601,237.003,174.304,234.67,174.182z"/>
								<path style="fill:#155E84;" d="M310.361,178.145l-56.098-2.937c-2.333-0.122-4.224-2.008-4.224-4.213v-35.18
									c0-2.205,1.891-3.83,4.224-3.631l56.098,4.799c2.333,0.2,4.224,2.06,4.224,4.155v33.434
									C314.585,176.668,312.694,178.268,310.361,178.145z"/>
							</g>
							<g>
								<path style="fill:#155E84;" d="M234.67,228.178l-56.098-0.636c-2.333-0.027-4.224-1.939-4.224-4.272v-37.227
									c0-2.333,1.891-4.14,4.224-4.036l56.098,2.497c2.333,0.104,4.224,1.991,4.224,4.214V224.2
									C238.894,226.424,237.003,228.205,234.67,228.178z"/>
								<path style="fill:#155E84;" d="M310.361,229.037l-56.098-0.636c-2.333-0.026-4.224-1.835-4.224-4.04v-35.18
									c0-2.205,1.891-3.908,4.224-3.804l56.098,2.498c2.333,0.104,4.224,1.887,4.224,3.982v33.434
									C314.585,227.386,312.694,229.064,310.361,229.037z"/>
							</g>
							<g>
								<path style="fill:#155E84;" d="M234.67,282.175l-56.098,1.665c-2.333,0.069-4.224-1.766-4.224-4.099v-37.227
									c0-2.333,1.891-4.217,4.224-4.209l56.098,0.196c2.333,0.008,4.224,1.817,4.224,4.041v35.481
									C238.894,280.247,237.003,282.105,234.67,282.175z"/>
								<path style="fill:#155E84;" d="M310.361,279.928l-56.098,1.665c-2.333,0.069-4.224-1.662-4.224-3.866v-35.18
									c0-2.205,1.891-3.985,4.224-3.977l56.098,0.196c2.333,0.008,4.224,1.713,4.224,3.809v33.434
									C314.585,278.105,312.694,279.859,310.361,279.928z"/>
							</g>
							<g>
								<path style="fill:#155E84;" d="M234.67,336.171l-56.098,3.966c-2.333,0.165-4.224-1.593-4.224-3.925v-37.227
									c0-2.333,1.891-4.295,4.224-4.383l56.098-2.105c2.333-0.087,4.224,1.644,4.224,3.868v35.481
									C238.894,334.07,237.003,336.006,234.67,336.171z"/>
								<path style="fill:#155E84;" d="M310.361,330.82l-56.098,3.966c-2.333,0.165-4.224-1.488-4.224-3.693v-35.18
									c0-2.205,1.891-4.063,4.224-4.15l56.098-2.105c2.333-0.088,4.224,1.54,4.224,3.635v33.434
									C314.585,328.823,312.694,330.655,310.361,330.82z"/>
							</g>
							<g>
								<path style="fill:#155E84;" d="M234.67,390.167l-56.098,6.267c-2.333,0.261-4.224-1.419-4.224-3.752v-37.227
									c0-2.333,1.891-4.373,4.224-4.556l56.098-4.406c2.333-0.183,4.224,1.471,4.224,3.694v35.481
									C238.894,387.893,237.003,389.907,234.67,390.167z"/>
								<path style="fill:#155E84;" d="M310.361,381.711l-56.098,6.267c-2.333,0.261-4.224-1.315-4.224-3.52v-35.18
									c0-2.205,1.891-4.14,4.224-4.324l56.098-4.406c2.333-0.183,4.224,1.367,4.224,3.462v33.434
									C314.585,379.541,312.694,381.451,310.361,381.711z"/>
							</g>
						</g>
					</g>
					<path style="opacity:0.34;fill:#FFFFFF;" d="M305.664,96.777l-31.107-3.122l-91.638,322.174l42.208-4.236l89.021-312.059
						C311.715,97.795,308.801,96.777,305.664,96.777z"/>
					<path style="opacity:0.34;fill:#FFFFFF;" d="M249.87,91.177l-84.122,295.749v11.145c0,4.122,1.205,7.907,3.209,10.936
						l90.396-316.878L249.87,91.177z"/>
					<polygon style="opacity:0.34;fill:#FFFFFF;" points="321.045,117.59 237.782,410.322 247.565,409.34 321.045,151.759 					"/>
					<path style="fill:#155E84;" d="M289.243,94.229l-77.673-7.677l7.33,20.876c1.529,4.356,5.476,7.406,10.077,7.786l41.397,3.424
						c5.079,0.42,9.845-2.495,11.786-7.207L289.243,94.229z"/>
					<path style="fill:#0D3D57;" d="M267.327,108.09c-0.058,0-0.117-0.003-0.176-0.009l-38.141-3.636
						c-1.009-0.096-1.75-0.992-1.653-2.001c0.095-1.01,0.984-1.752,2.001-1.653l38.141,3.636c1.009,0.096,1.75,0.992,1.653,2.001
						C269.062,107.379,268.263,108.09,267.327,108.09z"/>
					<path style="fill:#0D3D57;" d="M273.961,106.907c0,0.981-0.795,1.777-1.777,1.777c-0.981,0-1.777-0.795-1.777-1.777
						c0-0.981,0.795-1.777,1.777-1.777C273.165,105.131,273.961,105.926,273.961,106.907z"/>
				</g>
			</g>
		</g>
		<path style="fill:#EAF6FE;" d="M293.269,461.789c0.328,3.133,24.47,3.169,53.922,0.081c29.452-3.089,53.061-8.132,52.733-11.265
			c-0.329-3.133-24.47-3.169-53.922-0.081C316.549,453.612,292.94,458.656,293.269,461.789z"/>
		<path style="opacity:0.34;fill:#155E84;" d="M227.11,181.986c-8.495,0-15.382,8.031-15.382,17.938v128.983
			c0,9.907,6.887,17.938,15.382,17.938l96.759-9.712V191.698L227.11,181.986z"/>
		<g>
			<path style="fill:#D9D0C5;" d="M356.742,328.577l-124.534,12.5c-8.495,0-15.381-8.031-15.381-17.938V194.155
				c0-9.907,6.886-17.938,15.381-17.938l124.534,12.499c8.495,0,15.381,7.426,15.381,16.586v106.688
				C372.123,321.151,365.237,328.577,356.742,328.577z"/>
			<path style="fill:#FFFFFF;" d="M358.855,328.577l-124.534,12.5c-8.495,0-15.382-8.031-15.382-17.938V194.155
				c0-9.907,6.887-17.938,15.382-17.938l124.534,12.499c8.495,0,15.381,7.426,15.381,16.586v106.688
				C374.236,321.151,367.35,328.577,358.855,328.577z"/>
			<g>
				<polygon style="fill:#EDEBDD;" points="359.041,286.958 236.008,294.772 236.008,288.523 359.041,280.383 				"/>
				<polygon style="fill:#EDEBDD;" points="359.041,307.366 236.008,318.58 236.008,312.331 359.041,300.791 				"/>
				<polygon style="fill:#EDEBDD;" points="359.041,239.566 292.194,239.622 292.194,245.871 359.041,246.142 				"/>
				<polygon style="fill:#EDEBDD;" points="359.041,266.55 359.041,259.975 292.194,262.196 292.194,268.445 				"/>
			</g>
			<path style="fill:#E9496C;" d="M374.236,205.303c0-9.16-6.887-16.586-15.381-16.586l-124.534-12.499
				c-8.495,0-15.382,8.031-15.382,17.938v26.131l155.297,4.922V205.303z"/>
			<polygon style="fill:none;stroke:#E9496C;stroke-width:1.0281;stroke-miterlimit:10;" points="276.305,268.412 235.605,269.914 
				235.605,229.214 276.305,230.716 			"/>
			<g>
				<g>
					<path style="fill:#E9496C;" d="M249.484,236.132c5.193,0.259,7.95,3.415,7.95,7.238c0,3.487-2.052,4.979-3.43,5.441v0.136
						c2.212,0.89,3.847,2.536,3.847,5.617c0,4.319-2.981,7.346-7.918,7.535c-5.258,0.201-8.881-2.213-8.977-8.734l6.925-0.057
						c-0.097,1.631,0.384,2.523,1.73,2.501c0.77-0.013,1.347-0.674,1.347-1.703c0-1.234-0.642-1.951-2.597-1.942l-1.187,0.005
						v-6.218l1.154,0.019c0.577,0.044,2.18,0.105,2.18-1.818c0-1.236-0.576-1.699-1.186-1.717c-1.026-0.029-1.187,1.109-1.187,2.112
						l-6.925-0.148C241.342,238.77,244.259,235.871,249.484,236.132z"/>
					<path style="fill:#E9496C;" d="M263.203,244.177l-3.398-0.081v-6.917l10.868,0.523v23.379l-7.47,0.28V244.177z"/>
				</g>
			</g>
		</g>
		<g id="g39743_1_" transform="matrix(-1,0,0,1,25198.801,10807.884)">
			<g id="g39779_4_" transform="matrix(-0.81428574,0.58046423,0.58046423,0.81428574,3854.3915,-2185.6952)">
				<g>
					<g>
						<path style="fill:#FDA98F;" d="M-21902.447,5437.232c-0.42-4.813,0.264-9.074-2.137-10.341
							c-2.408-1.267-7.873,10.196-8.801,12.603c-0.93,2.406,1.818,5.115,7.742,4.084
							C-21903.381,5443.172-21902.098,5441.178-21902.447,5437.232z"/>
					</g>
					<path style="fill:#FDA98F;" d="M-21909.646,5437.422c-0.166-0.267-0.412-0.485-0.727-0.611
						c-0.781-0.316-1.67,0.061-1.986,0.842l-3.561,8.799c-0.318,0.782,0.061,1.672,0.842,1.987c0.781,0.316,1.67-0.061,1.986-0.842
						l3.561-8.799C-21909.34,5438.329-21909.4,5437.821-21909.646,5437.422z"/>
				</g>
				<path id="path39783_4_" style="fill:#4C7F73;" d="M-21930.508,5389.653l27.688,11.979c4.035,2.084,8.791,0.43,10.418-3.2
					s1.785-6.652-2.25-8.737l-33.922-17.658c-7.064-3.752-10.504,1.271-11.559,5.444
					C-21941.873,5384.367-21934.545,5387.569-21930.508,5389.653z"/>
				<path id="path39785_4_" style="fill:#4C7F73;" d="M-21890.352,5402.304c-1.385,6.137-11.797,32.791-11.797,32.791l-8.379-2.529
					c0,0,3.154-22.927,5.34-33.708c1.207-5.946,5.695-8.949,9.383-9.133C-21892.324,5389.55-21888.613,5394.604-21890.352,5402.304z
					"/>
			</g>
			<path id="path39755_1_" style="fill:#3D3213;" d="M24862.852-10358.088l-0.955,8.467h15.205l-10.086-8.401L24862.852-10358.088z"
				/>
			<path id="path39757_1_" style="fill:#D8C197;" d="M24869.867-10473.247c0,0-0.682-13.509-14.35-13.509
				s-11.795,13.509-11.795,13.509l18.42,116.675h7.074L24869.867-10473.247z"/>
			<path id="path39763_1_" style="fill:#3D3213;" d="M24827.633-10364.098l-0.953,8.467h15.205l-10.086-8.401L24827.633-10364.098z"
				/>
			<path id="path39765_1_" style="fill:#C8AE91;" d="M24849.266-10471.629c0,0,0.996-13.321-12.672-13.321
				s-11.686,14.489-11.686,14.489l2.16,107.879h7.072L24849.266-10471.629z"/>
			<path id="path39767_1_" style="fill:#D8C197;" d="M24824.189-10470.945c0,0-0.051,17.64,21.828,18.996
				c0.709-0.005,1.395-0.021,2.063-0.045c17.303-1.072,21.863-19.02,21.863-19.02v-13.372l-45.088,0.113L24824.189-10470.945z"/>
			<path id="path39761_1_" style="fill:#7E966E;" d="M24849.078-10550.519c-8.877-1.171-15.443,0.99-18.898,11.726
				c-4.059,12.615-7.506,65.637-7.506,65.637s8.367,6.935,23.441,7.744s26.164-6.931,26.164-6.931s-1.496-11.474-3.709-35.09
				C24866.635-10528.062,24865.75-10548.32,24849.078-10550.519z"/>
			<path id="rect39745_1_" style="fill:#F99B81;" d="M24844.859-10568.608h4.174c2.715,0,4.918,2.201,4.918,4.917v12.916
				c0,3.868-3.076,4.587-7.006,4.587c-3.928,0-7.004-0.719-7.004-4.587v-12.916
				C24839.941-10566.407,24842.145-10568.608,24844.859-10568.608z"/>
			<path id="ellipse39769_1_" style="fill:#FDA98F;" d="M24846.994-10591.623c7.805,0,13.943,3.282,16.836,10.546
				c0.801,2.011,2.555,12.229,2.811,14.479c1.021,9.029-7.723,12.767-17.689,12.767c-9.965,0-18.482-8.46-19.023-18.896
				C24829.387-10583.163,24837.027-10591.623,24846.994-10591.623z"/>
			<path style="fill:#3B2F3E;" d="M24862.045-10594.334c2.877,3.104,2.428,8.836,2.428,8.836s-0.398-2.781-1.051-4.149
				c0.893,5.2,0.893,11.451-0.631,16.757c-0.473-2.049-2.309-3.012-2.906-3.097c-0.342,7.85-1.621,12.798-7.338,18.856
				c0.342-1.195,0.854-2.39,0.854-2.39s-4.607,4.267-10.752,5.461c0.172-0.938,0.258-1.963,0.258-1.963l-1.195,2.39
				c0,0-7.082-0.256-9.982-6.57c-0.256,1.195-0.172,2.39-0.172,2.39s-3.98-3.741-4.719-13.836c-0.105,1.081-0.158,2.293-0.158,2.293
				s-8.428-15.966,2.799-23.642C24835.227-10604.375,24854.055-10605.43,24862.045-10594.334z"/>
			<path id="ellipse39773_1_" style="fill:#FDA98F;" d="M24859.408-10576.827c1.951,0,3.637,2.583,3.766,5.768
				c0.129,3.186-1.348,5.769-3.297,5.769c-1.951,0-3.637-2.583-3.766-5.769
				C24855.982-10574.244,24857.459-10576.827,24859.408-10576.827z"/>
			<g id="g39779_3_" transform="matrix(-0.81428574,0.58046423,0.58046423,0.81428574,3854.3915,-2185.6952)">
				<g>
					<g>
						<path style="fill:#FDA98F;" d="M-21996.408,5432.81c4.623-1.41,8.932-1.626,9.674-4.238
							c0.738-2.619-11.609-5.584-14.156-5.994c-2.545-0.41-4.625,2.842-2.387,8.422
							C-22002.412,5433.127-22000.195,5433.97-21996.408,5432.81z"/>
					</g>
					<path style="fill:#FDA98F;" d="M-21998.088,5425.805c0.227-0.216,0.389-0.504,0.447-0.836c0.146-0.83-0.406-1.622-1.236-1.769
						l-9.348-1.657c-0.83-0.148-1.623,0.406-1.77,1.236c-0.146,0.83,0.406,1.622,1.236,1.77l9.348,1.657
						C-21998.912,5426.293-21998.428,5426.129-21998.088,5425.805z"/>
				</g>
				<path id="path39783_3_" style="fill:#4C7F73;" d="M-21955.443,5391.823l-6.217,33.232c-1.201,4.38,1.402,8.689,5.291,9.527
					c3.891,0.838,7.547-2.121,7.975-3.773l9.564-34.362c1.66-6.64-0.156-11.765-6.08-12.541
					C-21950.834,5383.13-21954.244,5387.443-21955.443,5391.823z"/>
				<path id="path39785_3_" style="fill:#4C7F73;" d="M-21959.73,5437.393c-6.289-0.082-34.523-4.735-34.523-4.735l0.734-8.723
					c0,0,23.082-1.671,34.082-1.771c6.066-0.055,9.938,3.713,10.883,7.281
					C-21947.662,5432.817-21951.838,5437.496-21959.73,5437.393z"/>
			</g>
		</g>
		<g>
			<path style="fill:none;stroke:#0098B3;stroke-width:0.5141;stroke-miterlimit:10;" d="M305.357,73.859
				c0,1.447-1.173,2.62-2.62,2.62c-1.447,0-2.62-1.173-2.62-2.62c0-1.447,1.173-2.62,2.62-2.62
				C304.184,71.239,305.357,72.412,305.357,73.859z"/>
			<circle style="fill:none;stroke:#0098B3;stroke-width:0.5141;stroke-miterlimit:10;" cx="322.909" cy="58.453" r="1.083"/>
			<circle style="fill:none;stroke:#0098B3;stroke-width:0.5141;stroke-miterlimit:10;" cx="354.005" cy="95.257" r="1.834"/>
			<path style="fill:none;stroke:#0098B3;stroke-width:0.5141;stroke-miterlimit:10;" d="M353.393,133.249
				c0,0.675-0.547,1.223-1.223,1.223c-0.675,0-1.223-0.547-1.223-1.223c0-0.675,0.547-1.223,1.223-1.223
				C352.846,132.027,353.393,132.574,353.393,133.249z"/>
			<path style="fill:none;stroke:#0098B3;stroke-width:0.5141;stroke-miterlimit:10;" d="M367.542,144.603
				c0,2.026-1.642,3.668-3.668,3.668c-2.026,0-3.668-1.642-3.668-3.668c0-2.026,1.642-3.668,3.668-3.668
				C365.9,140.935,367.542,142.577,367.542,144.603z"/>
			<path style="fill:none;stroke:#0098B3;stroke-width:0.5141;stroke-miterlimit:10;" d="M192.95,62.444
				c0,1.22-0.989,2.208-2.208,2.208c-1.219,0-2.208-0.988-2.208-2.208c0-1.219,0.988-2.208,2.208-2.208
				C191.962,60.236,192.95,61.225,192.95,62.444z"/>
			<path style="fill:none;stroke:#0098B3;stroke-width:0.5141;stroke-miterlimit:10;" d="M181.634,45.609
				c0,1.677-1.359,3.036-3.036,3.036s-3.036-1.359-3.036-3.036c0-1.677,1.359-3.036,3.036-3.036S181.634,43.932,181.634,45.609z"/>
			<circle style="fill:none;stroke:#0098B3;stroke-width:0.5141;stroke-miterlimit:10;" cx="139.269" cy="60.098" r="0.966"/>
			<circle style="fill:none;stroke:#0098B3;stroke-width:0.5141;stroke-miterlimit:10;" cx="88.762" cy="105.362" r="0.966"/>
			<path style="fill:none;stroke:#0098B3;stroke-width:0.5141;stroke-miterlimit:10;" d="M66.82,99.98
				c0,3.506-2.842,6.348-6.348,6.348c-3.506,0-6.348-2.842-6.348-6.348c0-3.506,2.842-6.348,6.348-6.348
				C63.978,93.632,66.82,96.474,66.82,99.98z"/>
			<path style="fill:none;stroke:#0098B3;stroke-width:0.5141;stroke-miterlimit:10;" d="M90.832,191.472
				c0,0.686-0.556,1.242-1.242,1.242c-0.686,0-1.242-0.556-1.242-1.242c0-0.686,0.556-1.242,1.242-1.242
				C90.276,190.23,90.832,190.786,90.832,191.472z"/>
			<circle style="fill:none;stroke:#0098B3;stroke-width:0.5141;stroke-miterlimit:10;" cx="86.83" cy="216.864" r="5.658"/>
			<path style="fill:none;stroke:#0098B3;stroke-width:0.5141;stroke-miterlimit:10;" d="M141.615,285.31
				c0,1.448-1.174,2.622-2.622,2.622s-2.622-1.174-2.622-2.622c0-1.448,1.174-2.622,2.622-2.622S141.615,283.862,141.615,285.31z"/>
			<path style="fill:none;stroke:#0098B3;stroke-width:0.5141;stroke-miterlimit:10;" d="M123.675,306.286
				c0,1.6-1.298,2.898-2.898,2.898c-1.6,0-2.898-1.297-2.898-2.898s1.297-2.898,2.898-2.898
				C122.378,303.388,123.675,304.686,123.675,306.286z"/>
			<path style="fill:none;stroke:#0098B3;stroke-width:0.5141;stroke-miterlimit:10;" d="M385.906,172.161
				c0,0.63-0.511,1.141-1.141,1.141c-0.63,0-1.141-0.511-1.141-1.141s0.511-1.141,1.141-1.141
				C385.395,171.021,385.906,171.531,385.906,172.161z"/>
			<circle style="fill:none;stroke:#0098B3;stroke-width:0.5141;stroke-miterlimit:10;" cx="394.118" cy="100.308" r="5.018"/>
		</g>
	</g>
</g>
</svg>
